<svg width="32" height="32" viewBox="0 0 32 32" fill="none" xmlns="http://www.w3.org/2000/svg">
<path d="M29.7104 7.62274L27.0437 4.95607C26.9472 4.85954 26.8139 4.7998 26.6667 4.7998C26.5195 4.7998 26.3861 4.85954 26.2896 4.95607L14.9333 16.3123L11.0437 12.4227C10.9472 12.3262 10.8139 12.2665 10.6667 12.2665C10.5195 12.2665 10.3861 12.3262 10.2896 12.4227L7.62294 15.0894C7.52641 15.1859 7.46667 15.3193 7.46667 15.4665C7.46667 15.6137 7.52641 15.747 7.62294 15.8435L14.5563 22.7769C14.6528 22.8734 14.7861 22.9331 14.9333 22.9331C15.0805 22.9331 15.2139 22.8734 15.3104 22.7769L29.7104 8.37687C29.8069 8.28034 29.8667 8.147 29.8667 7.9998C29.8667 7.8526 29.8069 7.71927 29.7104 7.62274Z" fill="white"/>
<path d="M16.8186 24.2855C16.3152 24.789 15.6458 25.0669 14.9333 25.0669C14.2208 25.0669 13.5514 24.789 13.048 24.2855L6.11463 17.3522C5.6117 16.853 5.3333 16.1821 5.3333 15.4669C5.3333 14.7517 5.6117 14.0807 6.1189 13.5773L8.7813 10.9149C9.28477 10.4114 9.9541 10.1335 10.6666 10.1335C11.3792 10.1335 12.0485 10.4114 12.552 10.9149L14.9333 13.2957L22.5216 5.7074C20.3968 4.13833 17.7776 3.2002 14.9333 3.2002C7.86397 3.2002 2.1333 8.93086 2.1333 16.0002C2.1333 23.0695 7.86397 28.8002 14.9333 28.8002C22.0026 28.8002 27.7333 23.0695 27.7333 16.0002C27.7333 15.1794 27.6517 14.3789 27.5029 13.6013L16.8186 24.2855Z" fill="white"/>
</svg>
