<svg width="32" height="20" viewBox="0 0 32 20" fill="none" xmlns="http://www.w3.org/2000/svg">
<path d="M25.3333 16.6667V19.3333H9.33333V16.6667C9.33333 16.6667 9.33333 11.3333 17.3333 11.3333C25.3333 11.3333 25.3333 16.6667 25.3333 16.6667ZM21.3333 4.66666C21.3333 3.87553 21.0987 3.10217 20.6592 2.44438C20.2197 1.78658 19.595 1.27389 18.8641 0.97114C18.1332 0.66839 17.3289 0.589176 16.553 0.743517C15.777 0.897858 15.0643 1.27882 14.5049 1.83823C13.9455 2.39764 13.5645 3.11037 13.4102 3.8863C13.2559 4.66222 13.3351 5.46649 13.6378 6.19739C13.9406 6.9283 14.4533 7.55301 15.1111 7.99254C15.7688 8.43206 16.5422 8.66666 17.3333 8.66666C18.3942 8.66666 19.4116 8.24523 20.1618 7.49509C20.9119 6.74494 21.3333 5.72752 21.3333 4.66666ZM25.6 11.4133C26.3288 12.0857 26.9164 12.8966 27.3285 13.7985C27.7406 14.7005 27.9688 15.6755 28 16.6667V19.3333H32V16.6667C32 16.6667 32 12.0667 25.6 11.4133ZM24 0.666658C23.5972 0.666899 23.1968 0.729876 22.8133 0.853325C23.5934 1.97195 24.0116 3.3029 24.0116 4.66666C24.0116 6.03041 23.5934 7.36136 22.8133 8.47999C23.1968 8.60344 23.5972 8.66642 24 8.66666C25.0609 8.66666 26.0783 8.24523 26.8284 7.49509C27.5786 6.74494 28 5.72752 28 4.66666C28 3.60579 27.5786 2.58838 26.8284 1.83823C26.0783 1.08809 25.0609 0.666658 24 0.666658ZM10.6667 7.33332H6.66667V3.33332H4V7.33332H0V9.99999H4V14H6.66667V9.99999H10.6667V7.33332Z" fill="white"/>
</svg>
