<svg width="30" height="30" viewBox="0 0 30 30" fill="none" xmlns="http://www.w3.org/2000/svg">
<path d="M14.0625 5.625V13.125C14.0626 13.2481 14.0384 13.3701 13.9913 13.4838C13.9442 13.5976 13.8751 13.701 13.7881 13.7881C13.701 13.8751 13.5976 13.9442 13.4838 13.9913C13.3701 14.0384 13.2481 14.0626 13.125 14.0625H5.625C5.50187 14.0626 5.37993 14.0384 5.26615 13.9913C5.15238 13.9442 5.049 13.8751 4.96193 13.7881C4.87486 13.701 4.80581 13.5976 4.75872 13.4839C4.71163 13.3701 4.68743 13.2481 4.6875 13.125V5.625C4.68743 5.50187 4.71163 5.37993 4.75872 5.26615C4.80581 5.15238 4.87486 5.049 4.96193 4.96193C5.049 4.87486 5.15238 4.80581 5.26615 4.75872C5.37993 4.71163 5.50187 4.68743 5.625 4.6875H13.125C13.2481 4.68743 13.3701 4.71163 13.4838 4.75872C13.5976 4.80581 13.701 4.87486 13.7881 4.96193C13.8751 5.049 13.9442 5.15238 13.9913 5.26615C14.0384 5.37993 14.0626 5.50187 14.0625 5.625ZM24.375 4.6875H16.875C16.7519 4.68743 16.6299 4.71163 16.5162 4.75872C16.4024 4.80581 16.299 4.87486 16.2119 4.96193C16.1249 5.049 16.0558 5.15238 16.0087 5.26615C15.9616 5.37993 15.9374 5.50187 15.9375 5.625V13.125C15.9374 13.2481 15.9616 13.3701 16.0087 13.4839C16.0558 13.5976 16.1249 13.701 16.2119 13.7881C16.299 13.8751 16.4024 13.9442 16.5162 13.9913C16.6299 14.0384 16.7519 14.0626 16.875 14.0625H24.375C24.4981 14.0626 24.6201 14.0384 24.7338 13.9913C24.8476 13.9442 24.951 13.8751 25.0381 13.7881C25.1251 13.701 25.1942 13.5976 25.2413 13.4838C25.2884 13.3701 25.3126 13.2481 25.3125 13.125V5.625C25.3126 5.50187 25.2884 5.37993 25.2413 5.26615C25.1942 5.15238 25.1251 5.049 25.0381 4.96193C24.951 4.87486 24.8476 4.80581 24.7338 4.75872C24.6201 4.71163 24.4981 4.68743 24.375 4.6875ZM13.125 15.9375H5.625C5.50187 15.9374 5.37993 15.9616 5.26615 16.0087C5.15238 16.0558 5.049 16.1249 4.96193 16.2119C4.87486 16.299 4.80581 16.4024 4.75872 16.5162C4.71163 16.6299 4.68743 16.7519 4.6875 16.875V24.375C4.68743 24.4981 4.71163 24.6201 4.75872 24.7338C4.80581 24.8476 4.87486 24.951 4.96193 25.0381C5.049 25.1251 5.15238 25.1942 5.26615 25.2413C5.37993 25.2884 5.50187 25.3126 5.625 25.3125H13.125C13.2481 25.3126 13.3701 25.2884 13.4838 25.2413C13.5976 25.1942 13.701 25.1251 13.7881 25.0381C13.8751 24.951 13.9442 24.8476 13.9913 24.7338C14.0384 24.6201 14.0626 24.4981 14.0625 24.375V16.875C14.0626 16.7519 14.0384 16.6299 13.9913 16.5162C13.9442 16.4024 13.8751 16.299 13.7881 16.2119C13.701 16.1249 13.5976 16.0558 13.4838 16.0087C13.3701 15.9616 13.2481 15.9374 13.125 15.9375ZM24.375 15.9375H16.875C16.7519 15.9374 16.6299 15.9616 16.5162 16.0087C16.4024 16.0558 16.299 16.1249 16.2119 16.2119C16.1249 16.299 16.0558 16.4024 16.0087 16.5162C15.9616 16.6299 15.9374 16.7519 15.9375 16.875V24.375C15.9374 24.4981 15.9616 24.6201 16.0087 24.7338C16.0558 24.8476 16.1249 24.951 16.2119 25.0381C16.299 25.1251 16.4024 25.1942 16.5162 25.2413C16.6299 25.2884 16.7519 25.3126 16.875 25.3125H24.375C24.4981 25.3126 24.6201 25.2884 24.7338 25.2413C24.8476 25.1942 24.951 25.1251 25.0381 25.0381C25.1251 24.951 25.1942 24.8476 25.2413 24.7338C25.2884 24.6201 25.3126 24.4981 25.3125 24.375V16.875C25.3126 16.7519 25.2884 16.6299 25.2413 16.5162C25.1942 16.4024 25.1251 16.299 25.0381 16.2119C24.951 16.1249 24.8476 16.0558 24.7338 16.0087C24.6201 15.9616 24.4981 15.9374 24.375 15.9375Z" fill="white"/>
</svg>
