<svg width="1920" height="1080" viewBox="0 0 1920 1080" fill="none" xmlns="http://www.w3.org/2000/svg">
<g filter="url(#filter0_f_57_1911)">
<path d="M0 1077.54V0V645.865C77.7744 726.151 155.549 806.438 261 772.829C366.451 739.221 499.579 591.718 634 555.333C768.421 518.948 904.133 593.68 1002 563.061C1099.87 532.443 1159.89 396.473 1262 426.16C1364.11 455.848 1508.32 651.192 1625 715.419C1741.68 779.646 1830.84 712.755 1920 645.865V1077.54H0Z" fill="#7520A9"/>
<path d="M0 1077.54V0V969.349C84.859 825.458 169.718 681.568 278 749.644C386.282 817.721 517.987 1097.77 647 1204.51C776.013 1311.25 902.333 1244.7 1008 1146C1113.67 1047.29 1198.68 916.448 1292 878.817C1385.32 841.187 1486.95 896.771 1593 927.395C1699.05 958.02 1809.53 963.684 1920 969.349V1077.54H0Z" fill="#FBA860" fill-opacity="0.9"/>
<path d="M0 1077.54V0V645.865C125.869 608.372 251.738 570.88 351 601.703C450.262 632.525 522.915 731.663 624 727.564C725.085 723.465 854.6 616.129 966 569.686C1077.4 523.242 1170.68 537.691 1269 602.807C1367.32 667.923 1470.66 783.706 1580 799.326C1689.34 814.947 1804.67 730.406 1920 645.865V1077.54H0Z" fill="#7A32A4" fill-opacity="0.564706"/>
</g>
<defs>
<filter id="filter0_f_57_1911" x="-100" y="-100" width="2120" height="1459" filterUnits="userSpaceOnUse" color-interpolation-filters="sRGB">
<feFlood flood-opacity="0" result="BackgroundImageFix"/>
<feBlend mode="normal" in="SourceGraphic" in2="BackgroundImageFix" result="shape"/>
<feGaussianBlur stdDeviation="50" result="effect1_foregroundBlur_57_1911"/>
</filter>
</defs>
</svg>
