<svg width="390" height="844" viewBox="0 0 390 844" fill="none" xmlns="http://www.w3.org/2000/svg">
<g filter="url(#filter0_f_57_2225)">
<path d="M68 723.213V0V433.483C77.7218 487.369 87.4436 541.255 100.625 518.698C113.806 496.141 130.447 397.142 147.25 372.722C164.053 348.301 181.017 398.459 193.25 377.909C205.483 357.358 212.986 266.1 225.75 286.025C238.514 305.95 256.54 437.059 271.125 480.166C285.71 523.273 296.855 478.378 308 433.483V723.213H68Z" fill="#7520A9"/>
<path d="M68 658.167V0V592.08C78.6074 504.192 89.2147 416.303 102.75 457.885C116.285 499.466 132.748 670.518 148.875 735.717C165.002 800.917 180.792 760.264 194 699.977C207.208 639.69 217.835 559.769 229.5 536.784C241.165 513.799 253.869 547.75 267.125 566.455C280.381 585.161 294.191 588.62 308 592.08V658.167H68Z" fill="#FBA860" fill-opacity="0.9"/>
<path d="M68 723.213V0V433.483C83.7337 408.32 99.4673 383.156 111.875 403.843C124.283 424.531 133.364 491.068 146 488.317C158.636 485.566 174.825 413.526 188.75 382.355C202.675 351.183 214.336 360.881 226.625 404.584C238.914 448.288 251.833 525.998 265.5 536.482C279.167 546.966 293.584 490.225 308 433.483V723.213H68Z" fill="#7A32A4" fill-opacity="0.564706"/>
</g>
<defs>
<filter id="filter0_f_57_2225" x="-32" y="-100" width="440" height="969" filterUnits="userSpaceOnUse" color-interpolation-filters="sRGB">
<feFlood flood-opacity="0" result="BackgroundImageFix"/>
<feBlend mode="normal" in="SourceGraphic" in2="BackgroundImageFix" result="shape"/>
<feGaussianBlur stdDeviation="50" result="effect1_foregroundBlur_57_2225"/>
</filter>
</defs>
</svg>
