<svg width="32" height="32" viewBox="0 0 32 32" fill="none" xmlns="http://www.w3.org/2000/svg">
<path d="M3.20001 6.93328V4.79995C3.20001 3.91622 3.91628 3.19995 4.80001 3.19995C5.68321 3.19995 6.40001 3.91622 6.40001 4.79995V6.93328H3.20001Z" fill="white"/>
<path d="M27.199 19.7334H15.0603L13.4022 17.2465C13.1051 16.8012 12.6054 16.5334 12.0699 16.5334H4.80109C3.75309 16.5334 2.98829 17.5233 3.25283 18.5377L5.61816 27.6044C5.80216 28.3084 6.43789 28.8001 7.16643 28.8001H25.1286C25.8064 28.8001 26.4112 28.3724 26.6368 27.7324L28.7078 21.8657C29.0752 20.8252 28.3024 19.7334 27.199 19.7334Z" fill="white"/>
<path d="M24.5333 10.6667H25.6C26.4832 10.6667 27.2 11.383 27.2 12.2667V18.1334H24.5333" fill="white"/>
<path d="M6.4 14.9334H3.73334V12.2667C3.73334 11.383 4.4496 10.6667 5.33334 10.6667H6.4V14.9334Z" fill="white"/>
<path d="M20.2667 3.19995H6.91998C7.25812 3.64688 7.46665 4.19728 7.46665 4.79995V14.9333H12.0698C13.1418 14.9333 14.1376 15.4656 14.7333 16.3578L15.9168 18.1333H23.4667V6.39995C23.4667 4.63302 22.0336 3.19995 20.2667 3.19995ZM11.2 5.86662H16.5333C17.1221 5.86662 17.6 6.34448 17.6 6.93328C17.6 7.52208 17.1221 7.99995 16.5333 7.99995H11.2C10.6112 7.99995 10.1333 7.52208 10.1333 6.93328C10.1333 6.34448 10.6112 5.86662 11.2 5.86662ZM19.7333 12.2666H11.2C10.6112 12.2666 10.1333 11.7888 10.1333 11.2C10.1333 10.6112 10.6112 10.1333 11.2 10.1333H19.7333C20.3221 10.1333 20.8 10.6112 20.8 11.2C20.8 11.7888 20.3221 12.2666 19.7333 12.2666Z" fill="white"/>
</svg>
