<svg width="32" height="32" viewBox="0 0 32 32" fill="none" xmlns="http://www.w3.org/2000/svg">
<path d="M18.5387 31.1669H8.13341C5.28008 31.1669 5.13341 31.1229 5.07208 31.1029C4.87741 31.0443 4.66941 30.8829 4.54941 30.7629C4.41075 30.6229 4.20275 30.2869 4.17208 30.0536C4.15208 29.9109 4.14941 28.1923 4.14941 27.1803V9.84959C4.14941 6.99892 4.19341 6.85226 4.21208 6.78959C4.26941 6.59759 4.42808 6.38826 4.54808 6.26692C4.68675 6.12692 5.02675 5.91492 5.26408 5.88559C5.42941 5.86559 7.68408 5.86426 8.13341 5.86426H11.4547C14.3774 5.86426 14.4894 5.93226 14.6201 6.00959C14.6707 6.04026 14.7854 6.11092 16.7201 8.04292L20.3454 11.6683C22.2747 13.5949 22.3534 13.7256 22.3787 13.7683C22.4161 13.8296 22.4507 13.8869 22.4761 14.2443C22.5067 14.3123 22.5241 14.3856 22.5241 14.4643C22.5241 14.5229 22.5147 14.5803 22.4974 14.6323C22.5147 15.0856 22.5241 15.7963 22.5241 16.9309V27.1789C22.5241 30.0363 22.4814 30.1749 22.4614 30.2429C22.4027 30.4363 22.2427 30.6443 22.1227 30.7643C21.9854 30.9016 21.6507 31.1109 21.4161 31.1429C21.2627 31.1643 19.3534 31.1669 18.5387 31.1669ZM5.68541 30.0896C6.10408 30.0896 6.98675 30.0989 8.13341 30.0989H18.5387C19.9347 30.0989 21.1427 30.0936 21.2974 30.0829C21.2827 30.0936 21.3441 30.0296 21.3747 30.0029C21.4067 29.9709 21.4441 29.9163 21.4547 29.8976C21.4401 29.8549 21.4574 28.6523 21.4574 27.1789V16.9309C21.4574 16.1456 21.4494 15.4816 21.4374 14.9989H16.5827C14.8187 14.9989 13.3827 13.5629 13.3827 11.7989V6.95226C12.8987 6.94026 12.2361 6.93226 11.4534 6.93226H8.13341C6.73208 6.93226 5.52008 6.93892 5.37075 6.94692C5.39741 6.94826 5.32808 6.99892 5.29875 7.02559C5.26808 7.05626 5.22941 7.11226 5.22008 7.13092C5.23608 7.15759 5.21608 8.24292 5.21608 9.84959V27.1803C5.21608 28.5749 5.22275 29.7829 5.23208 29.9376C5.22941 29.8909 5.28808 29.9883 5.31341 30.0189C5.34408 30.0483 5.39741 30.0869 5.41608 30.0963C5.42275 30.0909 5.51608 30.0896 5.68541 30.0896ZM14.4507 7.30159V11.8003C14.4507 12.9763 15.4081 13.9336 16.5841 13.9336H21.0841C20.7507 13.5909 20.2347 13.0683 19.5907 12.4256L15.9667 8.80026C15.3321 8.16559 14.8001 7.64026 14.4507 7.30159Z" fill="white"/>
<path d="M25.6552 26.136H24.7766C24.4819 26.136 24.2432 25.896 24.2432 25.6027C24.2432 25.3094 24.4819 25.0694 24.7766 25.0694H25.6552C26.0926 25.0694 26.5086 25.064 26.6099 25.0547C26.6179 25.048 26.6726 24.9987 26.7019 24.9734C26.7339 24.9414 26.7726 24.8854 26.7819 24.8667C26.7672 24.8254 26.7846 23.6227 26.7846 22.1494V11.9014C26.7846 11.0974 26.7806 10.4387 26.7752 9.96937H21.9112C20.1472 9.96937 18.7112 8.53336 18.7112 6.76936V1.92003C18.2272 1.90803 17.5646 1.90003 16.7819 1.90003H13.4606C12.0592 1.90003 10.8472 1.9067 10.6992 1.9147C10.7072 1.9187 10.6579 1.96803 10.6272 1.99203C10.5952 2.02403 10.5566 2.08003 10.5472 2.0987C10.5539 2.1427 10.5432 2.61736 10.5432 3.02936V3.90803C10.5432 4.2027 10.3046 4.44136 10.0099 4.44136C9.71523 4.44136 9.47656 4.20136 9.47656 3.90803V3.02936C9.47656 2.63203 9.48456 1.94003 9.53923 1.75736C9.59656 1.56403 9.7579 1.3547 9.87656 1.23336C10.0139 1.0947 10.3526 0.881365 10.5926 0.853365C10.7552 0.833365 13.0099 0.832031 13.4606 0.832031H16.7819C19.7046 0.832031 19.8166 0.900031 19.9472 0.977365C19.9966 1.0067 20.1126 1.07736 22.0472 3.0107L25.6726 6.63603C27.7392 8.7027 27.7712 8.8307 27.8059 8.9787C27.8112 9.00136 27.8206 9.0387 27.8299 9.27736C27.8446 9.3267 27.8526 9.3787 27.8526 9.43336C27.8526 9.47736 27.8472 9.52003 27.8379 9.56137C27.8459 9.96937 27.8526 10.672 27.8526 11.9V22.148C27.8526 25.0054 27.8099 25.144 27.7899 25.212C27.7312 25.4054 27.5699 25.6134 27.4512 25.7334C27.3139 25.8707 26.9792 26.08 26.7459 26.112C26.6632 26.1227 26.1726 26.136 25.6552 26.136ZM19.7779 2.26936V6.76803C19.7779 7.94403 20.7352 8.90137 21.9112 8.90137H26.3926C26.0539 8.54403 25.5432 8.0187 24.9179 7.39336L21.2926 3.76803C20.6592 3.1347 20.1272 2.60936 19.7779 2.26936Z" fill="white"/>
</svg>
