<svg width="41" height="28" viewBox="0 0 41 28" fill="none" xmlns="http://www.w3.org/2000/svg">
<g clip-path="url(#clip0_4_913)">
<path d="M41 -0.303955H0V27.9725H41V-0.303955Z" fill="#F0F0F0"/>
<path d="M41 3.23029H0V6.7645H41V3.23029Z" fill="#D80027"/>
<path d="M41 10.2996H0V13.8338H41V10.2996Z" fill="#D80027"/>
<path d="M41 17.368H0V20.9023H41V17.368Z" fill="#D80027"/>
<path d="M41 24.4374H0V27.9716H41V24.4374Z" fill="#D80027"/>
<path d="M20.5 -0.303955H0V14.9218H20.5V-0.303955Z" fill="#2E52B2"/>
<path d="M7.99354 5.93335L7.66338 6.9841H6.59546L7.45958 7.63315L7.12942 8.68381L7.99354 8.03476L8.85711 8.68381L8.52702 7.63315L9.39115 6.9841H8.32314L7.99354 5.93335Z" fill="#F0F0F0"/>
<path d="M8.32314 10.7759L7.99354 9.72519L7.66338 10.7759H6.59546L7.45958 11.425L7.12942 12.4757L7.99354 11.8265L8.85711 12.4757L8.52702 11.425L9.39115 10.7759H8.32314Z" fill="#F0F0F0"/>
<path d="M3.8098 10.7759L3.48012 9.72519L3.14995 10.7759H2.08203L2.94615 11.425L2.61599 12.4757L3.48012 11.8265L4.34376 12.4757L4.01368 11.425L4.87764 10.7759H3.8098Z" fill="#F0F0F0"/>
<path d="M3.48012 5.93335L3.14995 6.9841H2.08203L2.94615 7.63315L2.61599 8.68381L3.48012 8.03476L4.34376 8.68381L4.01368 7.63315L4.87764 6.9841H3.8098L3.48012 5.93335Z" fill="#F0F0F0"/>
<path d="M7.99354 2.14142L7.66338 3.19225H6.59546L7.45958 3.84138L7.12942 4.89205L7.99354 4.24291L8.85711 4.89205L8.52702 3.84138L9.39115 3.19225H8.32314L7.99354 2.14142Z" fill="#F0F0F0"/>
<path d="M3.48012 2.14142L3.14995 3.19225H2.08203L2.94615 3.84138L2.61599 4.89205L3.48012 4.24291L4.34376 4.89205L4.01368 3.84138L4.87764 3.19225H3.8098L3.48012 2.14142Z" fill="#F0F0F0"/>
<path d="M12.5066 5.93335L12.1766 6.9841H11.1086L11.9727 7.63315L11.6427 8.68381L12.5066 8.03476L13.3704 8.68381L13.0402 7.63315L13.9043 6.9841H12.8364L12.5066 5.93335Z" fill="#F0F0F0"/>
<path d="M12.8364 10.7759L12.5066 9.72519L12.1766 10.7759H11.1086L11.9727 11.425L11.6427 12.4757L12.5066 11.8265L13.3704 12.4757L13.0402 11.425L13.9043 10.7759H12.8364Z" fill="#F0F0F0"/>
<path d="M17.35 10.7759L17.0203 9.72519L16.6902 10.7759H15.6223L16.4863 11.425L16.1562 12.4757L17.0203 11.8265L17.884 12.4757L17.5538 11.425L18.4179 10.7759H17.35Z" fill="#F0F0F0"/>
<path d="M17.0203 5.93335L16.6902 6.9841H15.6223L16.4863 7.63315L16.1562 8.68381L17.0203 8.03476L17.884 8.68381L17.5538 7.63315L18.4179 6.9841H17.35L17.0203 5.93335Z" fill="#F0F0F0"/>
<path d="M12.5066 2.14142L12.1766 3.19225H11.1086L11.9727 3.84138L11.6427 4.89205L12.5066 4.24291L13.3704 4.89205L13.0402 3.84138L13.9043 3.19225H12.8364L12.5066 2.14142Z" fill="#F0F0F0"/>
<path d="M17.0203 2.14142L16.6902 3.19225H15.6223L16.4863 3.84138L16.1562 4.89205L17.0203 4.24291L17.884 4.89205L17.5538 3.84138L18.4179 3.19225H17.35L17.0203 2.14142Z" fill="#F0F0F0"/>
</g>
<defs>
<clipPath id="clip0_4_913">
<rect width="41" height="28" rx="5" fill="white"/>
</clipPath>
</defs>
</svg>
