<svg width="30" height="30" viewBox="0 0 30 30" fill="none" xmlns="http://www.w3.org/2000/svg">
<path d="M8.76718 3.42769C11.3588 3.29181 14.7274 5.3021 14.9772 5.35103C15.0153 5.35648 15.5424 5.12281 16.1509 4.82404C19.6227 3.13431 21.2581 3.4223 21.9862 3.45488C18.5144 1.31966 13.6896 0.738237 9.27794 2.81919C8.00657 3.4223 7.97394 3.46572 8.76718 3.42769Z" fill="#F0F0F0"/>
<path d="M11.3371 8.9043C9.72343 7.4428 8.18048 5.97584 6.64281 5.45969C5.81699 5.1826 5.75716 5.19889 5.08351 5.89979C3.49697 7.55143 2.17673 10.23 1.80736 12.5499C1.51386 14.4081 1.47584 14.9298 1.57908 15.8371C1.8833 18.5808 2.51898 20.477 3.77951 22.4058C4.2956 23.199 4.43693 23.3457 4.28476 22.9436C4.05654 22.346 4.26841 20.9062 4.80097 19.4664C5.57798 17.3474 7.72949 13.3324 11.3371 8.9043Z" fill="#F0F0F0"/>
<path d="M28.2669 12.3544C27.3487 8.00795 24.5996 5.27502 24.2137 5.27502C23.817 5.27502 22.899 5.62817 22.2578 6.03024C20.9919 6.81803 20.0301 7.7362 18.7643 8.89893C21.068 11.7948 24.317 16.4728 25.4416 19.8902C25.8111 21.0148 25.9687 22.1231 25.8436 22.7317C25.7514 23.1935 25.7514 23.1935 25.9198 22.9816C26.2512 22.5633 27.0009 21.2811 27.2998 20.6182C27.7019 19.7381 28.1148 18.4342 28.3103 17.429C28.5439 16.2066 28.5223 13.5823 28.2669 12.3544Z" fill="#F0F0F0"/>
<path d="M15.086 12.4305C14.8198 12.3707 12.402 14.5331 10.6634 16.375C7.60448 19.624 5.81702 22.471 5.81702 24.0956C5.81702 24.905 6.15926 25.3125 7.6752 26.3014C9.47901 27.4749 11.5816 28.2191 13.6571 28.4204C15.3957 28.5887 17.5037 28.3714 19.1121 27.8662C21.0625 27.2522 23.7139 25.6494 24.1431 24.829C24.7027 23.7478 23.5945 21.33 21.1875 18.3799C19.6662 16.5107 15.5967 12.5446 15.086 12.4305Z" fill="#F0F0F0"/>
</svg>
