<svg width="30" height="30" viewBox="0 0 30 30" fill="none" xmlns="http://www.w3.org/2000/svg">
<path d="M15 22.5C20 22.5 21.25 17.5 21.25 17.5H8.75C8.75 17.5 10 22.5 15 22.5Z" fill="white"/>
<path d="M15 27.5C21.8925 27.5 27.5 21.8925 27.5 15C27.5 8.1075 21.8925 2.5 15 2.5C8.1075 2.5 2.5 8.1075 2.5 15C2.5 21.8925 8.1075 27.5 15 27.5ZM15 5C20.5138 5 25 9.48625 25 15C25 20.5138 20.5138 25 15 25C9.48625 25 5 20.5138 5 15C5 9.48625 9.48625 5 15 5Z" fill="white"/>
<path d="M10.6687 15.7925L13.2312 13.1888C13.4055 13.0145 13.5434 12.8073 13.6367 12.5792C13.7301 12.3511 13.7771 12.1067 13.775 11.8603C13.7729 11.6139 13.7217 11.3703 13.6245 11.1438C13.5273 10.9174 13.386 10.7125 13.2087 10.5413C12.8673 10.2021 12.4079 10.0082 11.9267 10.0003C11.4455 9.99233 10.9799 10.171 10.6275 10.4988C10.2698 10.1752 9.80048 10.0032 9.31844 10.019C8.83639 10.0349 8.37935 10.2374 8.04374 10.5838C7.31124 11.3338 7.31999 12.4963 8.06749 13.23L10.6687 15.7925ZM19.4187 15.7925L21.9812 13.1888C22.1555 13.0145 22.2934 12.8073 22.3867 12.5792C22.4801 12.3511 22.5271 12.1067 22.525 11.8603C22.5229 11.6139 22.4717 11.3703 22.3745 11.1438C22.2773 10.9174 22.136 10.7125 21.9587 10.5413C21.6173 10.2021 21.1579 10.0082 20.6767 10.0003C20.1955 9.99233 19.7299 10.171 19.3775 10.4988C19.0199 10.1746 18.5504 10.0022 18.0681 10.0178C17.5857 10.0334 17.1283 10.2359 16.7925 10.5825C16.06 11.3325 16.0687 12.495 16.8162 13.2288L19.4187 15.7925Z" fill="white"/>
</svg>
