<svg width="30" height="30" viewBox="0 0 30 30" fill="none" xmlns="http://www.w3.org/2000/svg">
<path d="M5.99999 9.00002C7.10434 9.00002 8.04691 8.60954 8.82798 7.82825C9.60933 7.04701 10 6.10416 10 5.00003C10 3.89601 9.60933 2.95316 8.82798 2.17182C8.04691 1.39058 7.10428 0.999878 5.99999 0.999878C4.89575 0.999878 3.95312 1.39058 3.17188 2.17182C2.3907 2.95316 2 3.89579 2 5.00003C2 6.10438 2.3907 7.04701 3.17188 7.82825C3.95312 8.60932 4.89575 9.00002 5.99999 9.00002Z" fill="white"/>
<path d="M10.7577 15.2426C11.9296 16.4141 13.3435 17.0001 15 17.0001C16.6565 17.0001 18.0704 16.4141 19.2422 15.2426C20.4139 14.0703 20.9999 12.6563 20.9999 11.0001C20.9999 9.34384 20.4139 7.92984 19.2422 6.75791C18.0704 5.58597 16.6565 5 15 5C13.3435 5 11.9295 5.58608 10.7577 6.75791C9.58596 7.92968 8.99988 9.34368 8.99988 11.0001C8.99988 12.6566 9.58596 14.0705 10.7577 15.2426Z" fill="white"/>
<path d="M24.0004 9.00002C25.1043 9.00002 26.0471 8.60954 26.8282 7.82825C27.6094 7.04701 27.9999 6.10416 27.9999 5.00003C27.9999 3.89601 27.6094 2.95316 26.8282 2.17182C26.0471 1.39058 25.1043 0.999878 24.0004 0.999878C22.8958 0.999878 21.9532 1.39058 21.172 2.17182C20.391 2.95316 20.0003 3.89579 20.0003 5.00003C20.0003 6.10438 20.391 7.04701 21.172 7.82825C21.9532 8.60932 22.8958 9.00002 24.0004 9.00002Z" fill="white"/>
<path d="M28.0623 9.00024C28.0002 9.00024 27.7736 9.10964 27.3829 9.32839C26.9926 9.54725 26.4845 9.76862 25.8597 9.99262C25.2349 10.2164 24.6148 10.3284 24.0004 10.3284C23.3022 10.3284 22.61 10.2087 21.9223 9.96903C21.974 10.3543 22.0002 10.6981 22.0002 11.0002C22.0002 12.4481 21.5783 13.7814 20.7341 15.0002C22.422 15.0525 23.8019 15.719 24.8753 17.0006H26.9689C27.8229 17.0006 28.5417 16.7892 29.125 16.3674C29.7082 15.9458 30 15.3283 30 14.516C30.0002 10.8386 29.3546 9.00003 28.0623 9.00024Z" fill="white"/>
<path d="M25.7273 21.633C25.6179 21.0235 25.4797 20.4583 25.313 19.9376C25.1463 19.4165 24.9223 18.9091 24.6414 18.4142C24.3601 17.9198 24.037 17.4976 23.6724 17.1485C23.3075 16.7994 22.8622 16.5211 22.3363 16.3125C21.8104 16.1042 21.2294 16.0001 20.5941 16.0001C20.4898 16.0001 20.266 16.1121 19.9222 16.3361C19.5783 16.5599 19.1985 16.8104 18.7816 17.086C18.3649 17.3617 17.8081 17.6119 17.1097 17.8359C16.4113 18.0599 15.7082 18.1719 15.0003 18.1719C14.292 18.1719 13.5888 18.0599 12.8908 17.8359C12.1927 17.6119 11.6356 17.3617 11.2189 17.086C10.8021 16.8104 10.422 16.5599 10.0783 16.3361C9.73448 16.1121 9.51064 16.0001 9.40633 16.0001C8.771 16.0001 8.19028 16.1042 7.66419 16.3125C7.13809 16.5211 6.69283 16.7994 6.32828 17.1485C5.96342 17.4973 5.6408 17.9198 5.35933 18.4142C5.0782 18.9091 4.85425 19.4165 4.68755 19.9376C4.5209 20.4583 4.38305 21.0235 4.27348 21.633C4.16403 22.2424 4.09118 22.8099 4.05473 23.3361C4.01823 23.8622 4.00006 24.4015 4.00006 24.9536C4.00006 26.2033 4.38014 27.1905 5.14053 27.9142C5.90119 28.6379 6.91168 29.0001 8.17184 29.0001H21.8283C23.0886 29.0001 24.099 28.6379 24.8598 27.9142C25.6202 27.1905 26.0004 26.2033 26.0004 24.9536C26.0004 24.4015 25.982 23.8624 25.9461 23.3361C25.9091 22.8099 25.8362 22.2424 25.7273 21.633Z" fill="white"/>
<path d="M9.26555 15.0002C8.42176 13.7814 7.99998 12.4481 8.00014 11.0002C8.00014 10.6981 8.02625 10.3545 8.07824 9.96903C7.39064 10.2086 6.69795 10.3284 6.00001 10.3284C5.38542 10.3284 4.76579 10.2165 4.14069 9.99262C3.51587 9.76862 3.00789 9.54725 2.6174 9.32839C2.22676 9.10964 2.00002 9.00024 1.93758 9.00024C0.645841 9.0003 0 10.8389 0 14.516C0 15.3283 0.291698 15.9458 0.874931 16.3674C1.45833 16.7892 2.17712 17.0002 3.03104 17.0002H5.12492C6.19796 15.719 7.57797 15.0524 9.26555 15.0002Z" fill="white"/>
</svg>
