<svg width="30" height="30" viewBox="0 0 30 30" fill="none" xmlns="http://www.w3.org/2000/svg">
<g clip-path="url(#clip0_10_120)">
<path d="M15 0.46875C6.71371 0.46875 0 6.97266 0 15C0 23.0273 6.71371 29.5312 15 29.5312C23.2863 29.5312 30 23.0273 30 15C30 6.97266 23.2863 0.46875 15 0.46875ZM15 26.7188C8.32863 26.7188 2.90323 21.4629 2.90323 15C2.90323 8.53711 8.32863 3.28125 15 3.28125C21.6714 3.28125 27.0968 8.53711 27.0968 15C27.0968 21.4629 21.6714 26.7188 15 26.7188ZM22.125 18.1406C21.5081 17.6426 20.5948 17.7246 20.0806 18.3223C18.8226 19.7871 16.9657 20.6309 15 20.6309C13.0343 20.6309 11.1774 19.793 9.91935 18.3223C9.40524 17.7246 8.48589 17.6484 7.875 18.1406C7.25806 18.6387 7.17944 19.5234 7.6875 20.1211C9.50202 22.2305 12.1694 23.4375 15 23.4375C17.8306 23.4375 20.498 22.2305 22.3125 20.1211C22.8266 19.5234 22.7419 18.6387 22.125 18.1406ZM10.1613 14.0625C11.2319 14.0625 12.0968 13.2246 12.0968 12.1875C12.0968 11.1504 11.2319 10.3125 10.1613 10.3125C9.09073 10.3125 8.22581 11.1504 8.22581 12.1875C8.22581 13.2246 9.09073 14.0625 10.1613 14.0625ZM19.8387 10.5469C18.2843 10.5469 16.4577 11.5371 16.2157 13.0137C16.1129 13.6699 16.9113 14.0801 17.4133 13.6465L17.9879 13.1484C18.8831 12.375 20.7823 12.375 21.6774 13.1484L22.252 13.6465C22.7661 14.0801 23.5585 13.6641 23.4496 13.0137C23.2198 11.5371 21.3931 10.5469 19.8387 10.5469Z" fill="white"/>
</g>
<defs>
<clipPath id="clip0_10_120">
<rect width="30" height="30" fill="white"/>
</clipPath>
</defs>
</svg>
