<svg width="32" height="32" viewBox="0 0 32 32" fill="none" xmlns="http://www.w3.org/2000/svg">
<g clip-path="url(#clip0_184_735)">
<path d="M24 0.945068C20.667 0.945068 18.145 2.90109 16 4.94507C13.956 2.77607 11.333 0.945068 8 0.945068C3.30599 0.945068 0 4.98104 0 9.38209C0 11.7431 0.967007 13.4441 2.02599 15.0411L14.459 29.9471C15.855 31.4241 16.118 31.4241 17.514 29.9471L29.975 15.0411C31.22 13.4441 32 11.7431 32 9.38209C32 4.98109 28.694 0.945068 24 0.945068ZM28 14.6271L16 28.9451L4 14.5681C2.56502 12.5731 2 11.2271 2 9.38209C2 5.94407 4.45501 2.84907 8 2.82005C10.916 2.79605 14.221 5.77404 16 8.01906C17.732 5.85205 21.084 2.82005 24 2.82005C27.451 2.82005 30 5.94407 30 9.38209C30 11.2271 29.553 12.6731 28 14.6271Z" fill="#FF852D"/>
</g>
<defs>
<clipPath id="clip0_184_735">
<rect width="32" height="32" fill="white"/>
</clipPath>
</defs>
</svg>
