<svg width="30" height="30" viewBox="0 0 30 30" fill="none" xmlns="http://www.w3.org/2000/svg">
<g clip-path="url(#clip0_10_122)">
<path d="M9.19355 10.5469C7.63911 10.5469 5.8125 11.5371 5.57661 13.0137C5.52823 13.3066 5.67944 13.5996 5.94556 13.7402C6.21169 13.8809 6.54435 13.8457 6.77419 13.6465L7.34879 13.1484C8.24395 12.375 10.1431 12.375 11.0383 13.1484L11.6129 13.6465C11.7641 13.7754 12.0968 13.9219 12.4415 13.7402C12.7077 13.5996 12.8589 13.3066 12.8105 13.0137C12.5746 11.5371 10.748 10.5469 9.19355 10.5469ZM19.8387 7.5C17.1653 7.5 15 9.59766 15 12.1875C15 14.7773 17.1653 16.875 19.8387 16.875C22.5121 16.875 24.6774 14.7773 24.6774 12.1875C24.6774 9.59766 22.5121 7.5 19.8387 7.5ZM19.8387 15C18.2359 15 16.9355 13.7402 16.9355 12.1875C16.9355 10.6348 18.2359 9.375 19.8387 9.375C21.4415 9.375 22.7419 10.6348 22.7419 12.1875C22.7419 13.7402 21.4415 15 19.8387 15ZM19.8387 10.7812C19.0343 10.7812 18.3871 11.4082 18.3871 12.1875C18.3871 12.9668 19.0343 13.5938 19.8387 13.5938C20.6431 13.5938 21.2903 12.9668 21.2903 12.1875C21.2903 11.4082 20.6431 10.7812 19.8387 10.7812ZM15 0.46875C6.71371 0.46875 0 6.97266 0 15C0 23.0273 6.71371 29.5312 15 29.5312C23.2863 29.5312 30 23.0273 30 15C30 6.97266 23.2863 0.46875 15 0.46875ZM18.871 23.9062C18.871 25.9922 17.1109 27.6855 14.9456 27.6562C12.8226 27.627 11.129 25.9102 11.129 23.8477V21.3398L12.1996 20.8242C13.1069 20.3848 14.1048 20.9238 14.3105 21.791L14.4798 22.5C14.6069 23.0391 15.3992 23.0391 15.5262 22.5L15.6956 21.791C15.9012 20.9238 16.8931 20.3789 17.8064 20.8242L18.877 21.3398V23.9062H18.871ZM20.5766 25.3887C20.7097 24.9141 20.8065 24.4219 20.8065 23.9062V21.3574C21.6653 20.6309 22.2823 19.7461 22.4577 18.75C22.5605 18.1699 21.9919 17.666 21.3871 17.8535C19.8206 18.3398 17.4919 18.6211 15 18.6211C12.5081 18.6211 10.1855 18.3398 8.6129 17.8535C8.01411 17.6719 7.43952 18.1641 7.54234 18.75C7.71774 19.7461 8.33468 20.6309 9.19355 21.3574V23.9062C9.19355 24.4219 9.29032 24.9141 9.42339 25.3887C5.55242 23.4316 2.90323 19.5117 2.90323 15C2.90323 8.53711 8.32863 3.28125 15 3.28125C21.6714 3.28125 27.0968 8.53711 27.0968 15C27.0968 19.5117 24.4476 23.4316 20.5766 25.3887Z" fill="white"/>
</g>
<defs>
<clipPath id="clip0_10_122">
<rect width="30" height="30" fill="white"/>
</clipPath>
</defs>
</svg>
