<svg width="32" height="32" viewBox="0 0 32 32" fill="none" xmlns="http://www.w3.org/2000/svg">
<path d="M15.9999 14.6667C15.9999 19.3563 14.6548 23.7317 12.3294 27.4283M7.74251 24.7072C7.76612 24.6673 7.79031 24.6279 7.81507 24.5884C9.62107 21.7175 10.6665 18.3224 10.6665 14.6667C10.6665 11.7211 13.0544 9.33333 15.9999 9.33333C18.9453 9.33333 21.3332 11.7211 21.3332 14.6667C21.3332 16.0227 21.2409 17.3581 21.0621 18.6667M18.2389 27.7915C19.0545 26.1635 19.7232 24.4492 20.2276 22.6667M25.3463 24.176C26.2063 21.1543 26.6667 17.9643 26.6667 14.6667C26.6667 8.77563 21.8911 4 16 4C14.0572 4 12.2356 4.51944 10.6667 5.42701M4 20.4855C4.85421 18.7272 5.33333 16.7528 5.33333 14.6667C5.33333 12.7238 5.85277 10.9023 6.76035 9.33333" stroke="white" stroke-width="2" stroke-linecap="round" stroke-linejoin="round"/>
</svg>
