<svg width="25" height="25" viewBox="0 0 25 25" fill="none" xmlns="http://www.w3.org/2000/svg">
<path d="M12.5002 17.1877C13.6052 17.1877 14.665 16.7487 15.4464 15.9673C16.2278 15.1859 16.6668 14.1261 16.6668 13.021V4.68766C16.6668 3.58259 16.2278 2.52279 15.4464 1.74138C14.665 0.959983 13.6052 0.520996 12.5002 0.520996C11.3951 0.520996 10.3353 0.959983 9.55388 1.74138C8.77248 2.52279 8.3335 3.58259 8.3335 4.68766V13.021C8.3335 14.1261 8.77248 15.1859 9.55388 15.9673C10.3353 16.7487 11.3951 17.1877 12.5002 17.1877ZM10.4168 4.68766C10.4168 4.13513 10.6363 3.60522 11.027 3.21452C11.4177 2.82382 11.9476 2.60433 12.5002 2.60433C13.0527 2.60433 13.5826 2.82382 13.9733 3.21452C14.364 3.60522 14.5835 4.13513 14.5835 4.68766V13.021C14.5835 13.5735 14.364 14.1034 13.9733 14.4941C13.5826 14.8848 13.0527 15.1043 12.5002 15.1043C11.9476 15.1043 11.4177 14.8848 11.027 14.4941C10.6363 14.1034 10.4168 13.5735 10.4168 13.021V4.68766Z" fill="white"/>
<path d="M19.7918 13.0207C19.7918 12.7444 19.6821 12.4795 19.4867 12.2841C19.2914 12.0888 19.0264 11.979 18.7502 11.979C18.4739 11.979 18.2089 12.0888 18.0136 12.2841C17.8182 12.4795 17.7085 12.7444 17.7085 13.0207C17.7085 14.402 17.1598 15.7268 16.183 16.7035C15.2063 17.6803 13.8815 18.229 12.5002 18.229C11.1188 18.229 9.79407 17.6803 8.81731 16.7035C7.84056 15.7268 7.29183 14.402 7.29183 13.0207C7.29183 12.7444 7.18208 12.4795 6.98673 12.2841C6.79138 12.0888 6.52643 11.979 6.25016 11.979C5.9739 11.979 5.70894 12.0888 5.51359 12.2841C5.31824 12.4795 5.2085 12.7444 5.2085 13.0207C5.21055 14.7726 5.8433 16.4652 6.99098 17.7889C8.13866 19.1125 9.72454 19.9787 11.4585 20.229V22.3957H10.9377C10.6614 22.3957 10.3964 22.5054 10.2011 22.7008C10.0057 22.8961 9.896 23.1611 9.896 23.4373C9.896 23.7136 10.0057 23.9786 10.2011 24.1739C10.3964 24.3693 10.6614 24.479 10.9377 24.479H14.0627C14.3389 24.479 14.6039 24.3693 14.7992 24.1739C14.9946 23.9786 15.1043 23.7136 15.1043 23.4373C15.1043 23.1611 14.9946 22.8961 14.7992 22.7008C14.6039 22.5054 14.3389 22.3957 14.0627 22.3957H13.5418V20.229C15.2758 19.9787 16.8617 19.1125 18.0093 17.7889C19.157 16.4652 19.7898 14.7726 19.7918 13.0207Z" fill="white"/>
</svg>
