<svg width="18" height="31" viewBox="0 0 18 31" fill="none" xmlns="http://www.w3.org/2000/svg">
<path d="M9 30.9999C8.78363 30.9999 8.5731 30.9297 8.4 30.7999L4.4 27.7999C4.2758 27.7067 4.175 27.586 4.10557 27.4471C4.03615 27.3082 4 27.1551 4 26.9999V17.4699C2.39456 16.3972 1.17664 14.8366 0.526144 13.0187C-0.124357 11.2007 -0.17296 9.22178 0.387514 7.37409C0.947988 5.52639 2.08782 3.90793 3.63867 2.75773C5.18953 1.60753 7.06917 0.986572 9 0.986572C10.9308 0.986572 12.8105 1.60753 14.3613 2.75773C15.9122 3.90793 17.052 5.52639 17.6125 7.37409C18.173 9.22178 18.1244 11.2007 17.4739 13.0187C16.8234 14.8366 15.6054 16.3972 14 17.4699V18.9999C14.0008 19.1315 13.9755 19.262 13.9258 19.3838C13.876 19.5056 13.8027 19.6164 13.71 19.7099L12.41 20.9999L13.71 22.2899C13.8037 22.3829 13.8781 22.4935 13.9289 22.6153C13.9797 22.7372 14.0058 22.8679 14.0058 22.9999C14.0058 23.1319 13.9797 23.2626 13.9289 23.3845C13.8781 23.5063 13.8037 23.6169 13.71 23.7099L12.41 24.9999L13.71 26.2899C13.8115 26.3915 13.8899 26.5137 13.94 26.6483C13.99 26.7829 14.0105 26.9267 14 27.0699C13.9897 27.2132 13.9486 27.3525 13.8796 27.4785C13.8105 27.6045 13.7152 27.7141 13.6 27.7999L9.6 30.7999C9.4269 30.9297 9.21637 30.9999 9 30.9999ZM6 26.4999L9 28.7499L11.48 26.8899L10.29 25.7099C10.1963 25.6169 10.1219 25.5063 10.0711 25.3845C10.0203 25.2626 9.9942 25.1319 9.9942 24.9999C9.9942 24.8679 10.0203 24.7372 10.0711 24.6153C10.1219 24.4935 10.1963 24.3829 10.29 24.2899L11.59 22.9999L10.29 21.7099C10.1963 21.6169 10.1219 21.5063 10.0711 21.3845C10.0203 21.2626 9.9942 21.1319 9.9942 20.9999C9.9942 20.8679 10.0203 20.7372 10.0711 20.6153C10.1219 20.4935 10.1963 20.3829 10.29 20.2899L12 18.5899V16.9199C12.0011 16.7454 12.0478 16.5742 12.1355 16.4233C12.2232 16.2724 12.3489 16.1471 12.5 16.0599C13.8345 15.2894 14.8775 14.1001 15.4672 12.6765C16.0568 11.2529 16.1603 9.67441 15.7615 8.18598C15.3627 6.69754 14.4838 5.3823 13.2613 4.44424C12.0388 3.50617 10.5409 2.99771 9 2.99771C7.45906 2.99771 5.96118 3.50617 4.73867 4.44424C3.51616 5.3823 2.63734 6.69754 2.23852 8.18598C1.8397 9.67441 1.94315 11.2529 2.53284 12.6765C3.12254 14.1001 4.16551 15.2894 5.5 16.0599C5.65114 16.1471 5.77681 16.2724 5.86453 16.4233C5.95224 16.5742 5.99895 16.7454 6 16.9199V26.4999Z" fill="white"/>
<path d="M9 9C9.55228 9 10 8.55228 10 8C10 7.44772 9.55228 7 9 7C8.44772 7 8 7.44772 8 8C8 8.55228 8.44772 9 9 9Z" fill="white"/>
<path d="M9 10C8.60444 10 8.21776 9.8827 7.88886 9.66294C7.55996 9.44318 7.30362 9.13082 7.15224 8.76537C7.00087 8.39992 6.96126 7.99778 7.03843 7.60982C7.1156 7.22186 7.30608 6.86549 7.58579 6.58579C7.86549 6.30608 8.22186 6.1156 8.60982 6.03843C8.99778 5.96126 9.39992 6.00087 9.76537 6.15224C10.1308 6.30362 10.4432 6.55996 10.6629 6.88886C10.8827 7.21776 11 7.60444 11 8C11 8.53043 10.7893 9.03914 10.4142 9.41421C10.0391 9.78929 9.53043 10 9 10Z" fill="white"/>
</svg>
