<svg width="25" height="25" viewBox="0 0 25 25" fill="none" xmlns="http://www.w3.org/2000/svg">
<path d="M24.3877 3.11189C23.9798 2.70395 23.4895 2.5 22.9164 2.5H2.08332C1.51042 2.5 1.02011 2.7039 0.611893 3.11189C0.203903 3.51993 0 4.01024 0 4.58318V20.4163C0 20.9894 0.203903 21.4797 0.611893 21.8877C1.02011 22.2957 1.51042 22.4997 2.08332 22.4997H22.9167C23.4895 22.4997 23.9799 22.2957 24.3879 21.8877C24.7958 21.4798 25 20.9894 25 20.4163V4.58318C25 4.01024 24.7958 3.51993 24.3877 3.11189ZM23.333 20.4163C23.333 20.5293 23.292 20.6267 23.2095 20.7094C23.127 20.7915 23.0293 20.8327 22.9164 20.8327H2.08332C1.97053 20.8327 1.87285 20.7915 1.79039 20.7094C1.70798 20.6267 1.66671 20.5293 1.66671 20.4163V4.583C1.66671 4.47017 1.70785 4.37271 1.79039 4.29007C1.87289 4.20785 1.97058 4.16657 2.08332 4.16657H22.9167C23.0294 4.16657 23.1271 4.20785 23.2095 4.29007C23.2917 4.37271 23.333 4.47017 23.333 4.583V20.4163Z" fill="white"/>
<path d="M5.83333 10.8333C6.52786 10.8333 7.11809 10.5904 7.60425 10.1042C8.09027 9.61805 8.33335 9.02786 8.33335 8.33351C8.33335 7.63894 8.09013 7.04875 7.60425 6.56255C7.11809 6.07657 6.52782 5.8335 5.83333 5.8335C5.13889 5.8335 4.54871 6.07657 4.06255 6.56255C3.57657 7.04871 3.3335 7.63889 3.3335 8.33351C3.3335 9.02786 3.57644 9.61818 4.06255 10.1042C4.54871 10.5902 5.13889 10.8333 5.83333 10.8333Z" fill="white"/>
<path d="M9.5834 14.5831L7.50004 12.4999L3.3335 16.6664V19.1665H21.6667V13.3332L16.2501 7.9165L9.5834 14.5831Z" fill="white"/>
</svg>
