<svg width="26" height="26" viewBox="0 0 26 26" fill="none" xmlns="http://www.w3.org/2000/svg">
<path d="M14.8186 21.2855C14.3152 21.789 13.6458 22.0669 12.9333 22.0669C12.2208 22.0669 11.5514 21.789 11.048 21.2855L4.11463 14.3522C3.6117 13.853 3.3333 13.1821 3.3333 12.4669C3.3333 11.7517 3.6117 11.0807 4.1189 10.5773L6.7813 7.91486C7.28477 7.4114 7.9541 7.13353 8.66663 7.13353C9.37917 7.13353 10.0485 7.4114 10.552 7.91486L12.9333 10.2957L20.5216 2.7074C18.3968 1.13833 15.7776 0.200195 12.9333 0.200195C5.86397 0.200195 0.133301 5.93086 0.133301 13.0002C0.133301 20.0695 5.86397 25.8002 12.9333 25.8002C20.0026 25.8002 25.7333 20.0695 25.7333 13.0002C25.7333 12.1794 25.6517 11.3789 25.5029 10.6013L14.8186 21.2855Z" fill="white"/>
</svg>
