<svg width="64" height="64" viewBox="0 0 64 64" fill="none" xmlns="http://www.w3.org/2000/svg">
<path d="M56 0H8C3.58267 0 0 3.58267 0 8V56C0 60.4173 3.58267 64 8 64H56C60.4173 64 64 60.4173 64 56V8C64 3.58267 60.4173 0 56 0ZM21.3333 6.66667C21.3333 6.66667 24 9.33333 29.3333 9.33333H32C37.1547 9.33333 41.3333 13.512 41.3333 18.6667V24C41.3333 29.2507 36.9987 33.488 31.7133 33.3293C26.6053 33.176 22.6667 28.7187 22.6667 23.6093V15.9587C21.1107 14.9893 20 13.4587 20 11.208C20 8.87467 21.3333 6.66667 21.3333 6.66667ZM50.6667 57.3333H13.3333V53.3333C13.3333 44.4973 20.4973 37.3333 29.3333 37.3333H34.6667C43.5027 37.3333 50.6667 44.4973 50.6667 53.3333V57.3333Z" fill="white"/>
</svg>
