<svg width="171" height="185" viewBox="0 0 171 185" fill="none" xmlns="http://www.w3.org/2000/svg">
<path d="M114.48 25.5155C114.48 39.5827 103.049 51.014 88.9815 51.014C74.8973 51.014 63.4773 39.5827 63.4773 25.5155C63.4773 11.4313 74.903 0 88.9815 0C103.06 0 114.48 11.4313 114.48 25.5155ZM88.9984 156.566C81.1588 156.555 74.7842 162.895 74.7616 170.752C74.7446 178.62 81.0796 184.994 88.9305 185.006C96.7928 185.028 103.167 178.688 103.179 170.831C103.207 162.963 96.855 156.589 88.9984 156.566ZM170.896 98.1478C170.896 93.0232 166.744 88.8658 161.614 88.8658C156.478 88.8658 152.315 93.0062 152.315 98.1478C152.315 103.261 156.461 107.441 161.614 107.441C166.738 107.435 170.896 103.272 170.896 98.1478ZM32.5657 98.1478C32.5657 89.1826 25.303 81.9143 16.3322 81.9143C7.36132 81.9143 0.104309 89.1826 0.104309 98.1478C0.104309 107.107 7.36132 114.376 16.3322 114.376C25.303 114.376 32.5657 107.107 32.5657 98.1478ZM145.505 41.5963C142.654 38.7342 138.044 38.7455 135.182 41.5963C132.326 44.4584 132.326 49.1078 135.182 51.9586C138.044 54.8207 142.654 54.8207 145.505 51.9586C148.355 49.0965 148.355 44.4584 145.505 41.5963ZM49.4101 137.753C42.8941 131.271 32.3338 131.271 25.8234 137.742C19.313 144.224 19.3074 154.778 25.8234 161.272C32.3395 167.765 42.8941 167.777 49.3988 161.272C55.9262 154.795 55.9262 144.247 49.4101 137.753ZM147.139 156.289C150.861 152.544 150.861 146.481 147.128 142.736C143.406 139.014 137.365 139.014 133.638 142.759C129.916 146.492 129.916 152.556 133.638 156.306C137.377 160.033 143.406 160.033 147.139 156.289ZM49.8287 58.9781C56.5483 52.2527 56.5483 41.3361 49.8287 34.5938C43.109 27.8685 32.2094 27.8685 25.4784 34.5938C18.7587 41.3191 18.7587 52.2358 25.484 58.9781C32.2094 65.7203 43.1034 65.7147 49.8287 58.9781Z" fill="white"/>
</svg>
