<svg width="30" height="30" viewBox="0 0 30 30" fill="none" xmlns="http://www.w3.org/2000/svg">
<path d="M22.9281 15.9766C22.9281 15.9766 23.5375 13.6328 22.4015 11.9906C21.8422 11.1813 20.8578 10.5406 19.1656 10.4375C19.1656 10.4375 16.1875 7.87659 17.7031 5.36877C17.7031 5.36877 14.725 5.52502 13.3672 9.96721C13.3672 9.96721 10.5906 10.0813 9.34997 11.8235C8.85466 12.5188 8.60466 13.4719 8.87341 14.7813C8.87341 14.7813 3.89372 14.5422 3.39841 20.2656C3.31716 21.2 3.81872 22.086 4.65779 22.5063C7.34841 23.8516 11.214 24.6953 15.5093 24.6953C19.1843 24.6953 22.5437 24.0781 25.1234 23.0578C25.9312 22.7375 26.489 21.9844 26.5547 21.1172C26.6781 19.4985 26.2094 17.1656 22.9281 15.9766Z" fill="white"/>
</svg>
