<svg width="15" height="9" viewBox="0 0 15 9" fill="none" xmlns="http://www.w3.org/2000/svg">
<path d="M7.49999 5.07694C7.81861 5.07694 8.07691 4.81864 8.07691 4.50002C8.07691 4.18139 7.81861 3.9231 7.49999 3.9231C7.18136 3.9231 6.92307 4.18139 6.92307 4.50002C6.92307 4.81864 7.18136 5.07694 7.49999 5.07694Z" fill="white"/>
<path d="M7.50001 2.19226C6.23078 2.19226 5.19232 3.23072 5.19232 4.49995C5.19232 5.76918 6.23078 6.80765 7.50001 6.80765C8.76924 6.80765 9.80771 5.76918 9.80771 4.49995C9.80771 3.23072 8.76924 2.19226 7.50001 2.19226ZM7.50001 6.23072C6.51923 6.23072 5.76924 5.48074 5.76924 4.49995C5.76924 3.51917 6.51923 2.76918 7.50001 2.76918C8.4808 2.76918 9.23078 3.51917 9.23078 4.49995C9.23078 5.48074 8.4808 6.23072 7.50001 6.23072Z" fill="white"/>
<path d="M7.5 0.461548C2.30769 0.461548 0 4.50001 0 4.50001C0 4.50001 2.30769 8.53847 7.5 8.53847C12.6923 8.53847 15 4.50001 15 4.50001C15 4.50001 12.6923 0.461548 7.5 0.461548ZM7.5 7.96155C2.88462 7.96155 0.692308 4.50001 0.692308 4.50001C0.692308 4.50001 2.88462 1.03847 7.5 1.03847C12.1154 1.03847 14.3077 4.50001 14.3077 4.50001C14.3077 4.50001 12.1154 7.96155 7.5 7.96155Z" fill="white"/>
</svg>
